
<svg width="95" height="95px" viewBox="0 -14 64 92" version="1.1" xmlns="http://www.w3.org/2000/svg" xmlns:xlink="http://www.w3.org/1999/xlink">
        <path d="M23.1548176,22.0292066 C19.7132838,24.2107879 15.73842,25.6176656 11.4685903,26.0072194 L11.4685903,26.0072194 C11.3402403,26.0192303 11.2102959,26.0272375 11.0807501,26.0368463 L11.0807501,26.0368463 L11.0807501,30.2166423 C11.0807501,41.521309 17.9307336,53.5394237 31.4597001,53.5394237 L31.4597001,53.5394237 C43.7330688,53.5394237 49.6750358,43.5335365 51.4719358,34.0741456 L51.4719358,34.0741456 C50.2550024,34.2234812 49.0193348,34.3107605 47.7629398,34.3107605 L47.7629398,34.3107605 L47.7625412,34.3107605 C42.2076171,34.3107605 37.0026661,32.8178046 32.5140036,30.2166423 L32.5140036,30.2166423 C28.9210009,28.1347515 25.7871883,25.3442172 23.3078809,22.0292066 L23.3078809,22.0292066 L23.1548176,22.0292066 Z M13.3081407,30.2166423 L13.3081407,28.0374632 C16.5954153,27.5414127 19.7961932,26.466036 22.7199423,24.8757918 L22.7199423,24.8757918 C25.1709489,27.7892378 28.0839358,30.2322565 31.4007069,32.1544021 L31.4007069,32.1544021 C36.3601189,35.0286124 42.0178824,36.5479923 47.7629398,36.5479923 L47.7629398,36.5479923 C48.0036957,36.5479923 48.2448502,36.5447894 48.4868019,36.5391843 L48.4868019,36.5391843 C45.8990746,43.5867848 41.5499231,51.3021919 31.4597001,51.3021919 L31.4597001,51.3021919 C19.4545908,51.3021919 13.3081407,40.2697724 13.3081407,30.2166423 L13.3081407,30.2166423 Z" id="Fill-14" fill="currentColor"></path>
        <path d="M19.4545908,32.0246843 C19.4545908,33.3719078 20.5415798,34.4640998 21.8828771,34.4640998 L21.8828771,34.4640998 C23.2241744,34.4640998 24.311562,33.3719078 24.311562,32.0246843 L24.311562,32.0246843 C24.311562,30.6778612 23.2241744,29.5856692 21.8828771,29.5856692 L21.8828771,29.5856692 C20.5415798,29.5856692 19.4545908,30.6778612 19.4545908,32.0246843" id="Fill-17" fill="currentColor"></path>
        <path d="M25.6831531,44.7350277 C25.1302914,44.7350277 24.9082699,45.4452727 25.3586907,45.7675654 L25.3586907,45.7675654 C27.5342629,47.3213765 32.2923807,49.685924 37.5758564,45.7615599 L37.5758564,45.7615599 C38.0127247,45.4368651 37.7827311,44.7350277 37.2390373,44.7350277 L37.2390373,44.7350277 L25.6831531,44.7350277 Z" id="Fill-20" fill="currentColor"></path>
        <path d="M31.4597001,0.246223616 C26.122413,0.246223616 21.1952878,2.00341947 17.2168366,4.97091451 C11.3482124,9.34808979 7.54474759,16.3608587 7.54474759,24.2664384 L7.54474759,25.4691307 C7.54474759,25.4691307 7.7237201,32.1996432 11.484933,34.9817699 C12.3566766,31.0738208 11.5594717,28.2712755 11.5594717,28.2712755 C11.6890175,28.2616668 11.3402403,28.2560617 11.4685903,28.2444512 C15.73842,27.8548974 19.7132838,26.4476193 23.1548176,24.2664384 C23.189496,24.2448188 23.2233772,24.2223984 23.2572584,24.2007788 C23.2736011,24.2227988 23.2911396,24.2444184 23.3078809,24.2664384 C28.8843295,31.7236109 37.7624024,36.5479923 47.7625412,36.5479923 L53.1468634,36.5479923 C54.3769506,36.5479923 55.374254,35.5458822 55.374254,34.3107605 L55.374254,25.2533347 L55.374254,24.2664384 C55.374254,12.3864492 46.7855665,2.52709507 35.5063124,0.595340679 C34.190127,0.36993597 32.8396618,0.246223616 31.4597001,0.246223616 Z M45.5606611,33.3719078 C42.8063181,32.9038828 40.0651289,32.1359854 37.5188563,30.8616281 L37.5188563,30.8616281 C34.9674018,29.6136947 32.612857,27.8689101 30.7091316,25.6757183 L30.7091316,25.6757183 C29.7516885,24.5847275 28.9213995,23.3768305 28.2174676,22.0912629 L28.2174676,22.0912629 C27.8698862,21.4462772 27.5490112,20.7836754 27.2755699,20.09505 L27.2755699,20.09505 C27.1400451,19.7503369 27.0116951,19.4012199 26.8961004,19.0440956 L26.8961004,19.0440956 C26.8901214,19.0256788 26.8845409,19.0072621 26.8789605,18.9892457 L26.8789605,18.9892457 C26.7011838,18.419128 27.0698911,17.824588 27.6570325,17.7325044 L27.6570325,17.7325044 L27.871082,17.6988738 C28.3709295,17.6204026 28.8448679,17.9398927 28.9668402,18.4327403 L28.9668402,18.4327403 C28.9672388,18.4355429 28.968036,18.4391461 28.9688332,18.4419487 L28.9688332,18.4419487 C29.0469593,18.7534316 29.1386379,19.0653148 29.2374913,19.375997 L29.2374913,19.375997 C29.4367925,19.9977617 29.6843247,20.6087165 29.9573674,21.2088616 L29.9573674,21.2088616 C30.5126206,22.4055484 31.1914406,23.5553926 32.0017995,24.6131533 L32.0017995,24.6131533 C33.6109576,26.7394844 35.6924597,28.5231042 38.0438157,29.8747318 L38.0438157,29.8747318 C40.3860038,31.2523829 42.994857,32.1820272 45.6694796,32.8234097 L45.6694796,32.8234097 C48.3496826,33.4635911 51.1159838,33.7678675 53.8886626,33.8659565 L53.8886626,33.8659565 C53.3314163,33.8835725 52.7725757,33.8931813 52.213735,33.8931813 L52.213735,33.8931813 C49.9931206,33.8931813 47.7661286,33.7438456 45.5606611,33.3719078 L45.5606611,33.3719078 Z" id="Fill-23" fill="currentColor"></path>
        <path d="M58.4869407,41.8576144 C54.2769014,52.7711259 43.72988,60.5113555 31.377588,60.5113555 L31.377588,60.5113555 C19.0324708,60.5113555 8.48983405,52.7799339 4.27580872,41.8756308 L4.27580872,41.8756308 C3.7404856,40.4907731 2.05280273,39.987516 0.875331028,40.8871331 L0.875331028,40.8871331 C0.31609176,41.3139207 0.0027902173,41.9713177 0,42.6475318 L0,42.6475318 L0,42.6655482 C0.00119580742,42.9277863 0.0486295016,43.1924267 0.147084312,43.4474583 L0.147084312,43.4474583 C4.99409037,56.0248809 17.1450881,64.9469838 31.377588,64.9469838 L31.377588,64.9469838 C45.6184585,64.9469838 57.7750367,56.0152722 62.6164623,43.4270398 L62.6164623,43.4270398 C62.9696241,42.5082053 62.6686792,41.4632563 61.8882156,40.8675152 L61.8882156,40.8675152 C61.4848299,40.5596356 61.0220524,40.4163055 60.5660512,40.4159051 L60.5660512,40.4159051 C59.6895243,40.4159051 58.8385081,40.9459865 58.4869407,41.8576144" id="Fill-26" fill="currentColor"></path>
        <path d="M55.374533,26.7374025 L55.374533,23.212201 L49.1814464,23.212201 C48.2124438,23.212201 47.4267983,24.0013176 47.4267983,24.9750019 C47.4267983,25.9482858 48.2124438,26.7374025 49.1814464,26.7374025 L55.374533,26.7374025 Z" id="Fill-29" fill-opacity="0.15" fill="#000000"></path>
        <path d="M55.3743337,32.0248044 L55.3743337,28.4996029 L52.2963254,28.4996029 C51.3273228,28.4996029 50.5416773,29.2887196 50.5416773,30.2624038 C50.5416773,31.2356878 51.3273228,32.0248044 52.2963254,32.0248044 L55.3743337,32.0248044 Z" id="Fill-31" fill-opacity="0.15" fill="#000000"></path>
        <path d="M8.42286883,0.246223616 C4.85657252,0.246223616 1.96590739,3.14966047 1.96590739,6.73131327 L1.96590739,6.73131327 C1.96590739,10.2304912 4.7254323,13.0806797 8.17732971,13.2107978 L8.17732971,13.2107978 C9.71035482,9.95904465 11.8974866,7.07962961 14.5701162,4.7455098 L14.5701162,4.7455098 C13.7346454,2.1351391 11.2987857,0.246223616 8.42286883,0.246223616 Z" id="Fill-34" fill="currentColor"></path>
        <path d="M54.3402792,0.246223616 C51.5026282,0.246223616 49.0946706,2.08549401 48.2281089,4.6410149 L48.2281089,4.6410149 C50.953354,6.99194998 53.1827376,9.90619665 54.738483,13.2035913 L54.738483,13.2035913 C58.118632,12.9966033 60.7972406,10.1784439 60.7972406,6.73131327 L60.7972406,6.73131327 C60.7972406,3.14966047 57.9061769,0.246223616 54.3402792,0.246223616 Z" id="Fill-37" fill="currentColor"></path>

</svg>